<svg id="svgQrWrapper" viewBox="0 0 300 300" xmlns="http://www.w3.org/2000/svg" xmlns:xlink="http://www.w3.org/1999/xlink" width="300" height="300" style="width: 100%; height: 100%; background-color: rgb(255, 255, 255);"><svg><g transform="translate(9, 9)scale(0.95)" fill="none"><svg width="300" height="300"><style>.background-color{ fill: transparent; }.corners-dot-color-0-0{ fill: #7B1F59; }.corners-dot-color-1-0{ fill: #7B1F59; }.corners-dot-color-0-1{ fill: #7B1F59; }</style><defs><clipPath id="clip-path-dot-color"><rect x="0" y="96" width="12" height="12" transform="rotate(0,6,102)"/><rect x="0" y="108" width="12" height="12" transform="rotate(0,6,114)"/><rect x="0" y="120" width="12" height="12" transform="rotate(0,6,126)"/><rect x="0" y="132" width="12" height="12" transform="rotate(0,6,138)"/><rect x="0" y="168" width="12" height="12" transform="rotate(0,6,174)"/><rect x="12" y="132" width="12" height="12" transform="rotate(0,18,138)"/><rect x="12" y="144" width="12" height="12" transform="rotate(0,18,150)"/><rect x="12" y="192" width="12" height="12" transform="rotate(0,18,198)"/><rect x="24" y="108" width="12" height="12" transform="rotate(0,30,114)"/><rect x="24" y="132" width="12" height="12" transform="rotate(0,30,138)"/><rect x="24" y="156" width="12" height="12" transform="rotate(0,30,162)"/><rect x="24" y="168" width="12" height="12" transform="rotate(0,30,174)"/><rect x="24" y="192" width="12" height="12" transform="rotate(0,30,198)"/><rect x="36" y="120" width="12" height="12" transform="rotate(0,42,126)"/><rect x="36" y="132" width="12" height="12" transform="rotate(0,42,138)"/><rect x="36" y="144" width="12" height="12" transform="rotate(0,42,150)"/><rect x="36" y="156" width="12" height="12" transform="rotate(0,42,162)"/><rect x="36" y="192" width="12" height="12" transform="rotate(0,42,198)"/><rect x="48" y="120" width="12" height="12" transform="rotate(0,54,126)"/><rect x="48" y="132" width="12" height="12" transform="rotate(0,54,138)"/><rect x="48" y="144" width="12" height="12" transform="rotate(0,54,150)"/><rect x="48" y="156" width="12" height="12" transform="rotate(0,54,162)"/><rect x="48" y="168" width="12" height="12" transform="rotate(0,54,174)"/><rect x="48" y="192" width="12" height="12" transform="rotate(0,54,198)"/><rect x="60" y="108" width="12" height="12" transform="rotate(0,66,114)"/><rect x="60" y="132" width="12" height="12" transform="rotate(0,66,138)"/><rect x="60" y="168" width="12" height="12" transform="rotate(0,66,174)"/><rect x="60" y="192" width="12" height="12" transform="rotate(0,66,198)"/><rect x="72" y="96" width="12" height="12" transform="rotate(0,78,102)"/><rect x="72" y="120" width="12" height="12" transform="rotate(0,78,126)"/><rect x="72" y="144" width="12" height="12" transform="rotate(0,78,150)"/><rect x="72" y="168" width="12" height="12" transform="rotate(0,78,174)"/><rect x="72" y="192" width="12" height="12" transform="rotate(0,78,198)"/><rect x="84" y="96" width="12" height="12" transform="rotate(0,90,102)"/><rect x="84" y="108" width="12" height="12" transform="rotate(0,90,114)"/><rect x="84" y="132" width="12" height="12" transform="rotate(0,90,138)"/><rect x="84" y="144" width="12" height="12" transform="rotate(0,90,150)"/><rect x="84" y="156" width="12" height="12" transform="rotate(0,90,162)"/><rect x="84" y="180" width="12" height="12" transform="rotate(0,90,186)"/><rect x="84" y="192" width="12" height="12" transform="rotate(0,90,198)"/><rect x="96" y="0" width="12" height="12" transform="rotate(0,102,6)"/><rect x="96" y="12" width="12" height="12" transform="rotate(0,102,18)"/><rect x="96" y="36" width="12" height="12" transform="rotate(0,102,42)"/><rect x="96" y="48" width="12" height="12" transform="rotate(0,102,54)"/><rect x="96" y="72" width="12" height="12" transform="rotate(0,102,78)"/><rect x="96" y="108" width="12" height="12" transform="rotate(0,102,114)"/><rect x="96" y="192" width="12" height="12" transform="rotate(0,102,198)"/><rect x="96" y="216" width="12" height="12" transform="rotate(0,102,222)"/><rect x="96" y="288" width="12" height="12" transform="rotate(0,102,294)"/><rect x="108" y="0" width="12" height="12" transform="rotate(0,114,6)"/><rect x="108" y="12" width="12" height="12" transform="rotate(0,114,18)"/><rect x="108" y="48" width="12" height="12" transform="rotate(0,114,54)"/><rect x="108" y="84" width="12" height="12" transform="rotate(0,114,90)"/><rect x="108" y="120" width="12" height="12" transform="rotate(0,114,126)"/><rect x="108" y="132" width="12" height="12" transform="rotate(0,114,138)"/><rect x="108" y="156" width="12" height="12" transform="rotate(0,114,162)"/><rect x="108" y="168" width="12" height="12" transform="rotate(0,114,174)"/><rect x="108" y="180" width="12" height="12" transform="rotate(0,114,186)"/><rect x="108" y="192" width="12" height="12" transform="rotate(0,114,198)"/><rect x="108" y="240" width="12" height="12" transform="rotate(0,114,246)"/><rect x="108" y="252" width="12" height="12" transform="rotate(0,114,258)"/><rect x="108" y="264" width="12" height="12" transform="rotate(0,114,270)"/><rect x="108" y="276" width="12" height="12" transform="rotate(0,114,282)"/><rect x="120" y="48" width="12" height="12" transform="rotate(0,126,54)"/><rect x="120" y="72" width="12" height="12" transform="rotate(0,126,78)"/><rect x="120" y="108" width="12" height="12" transform="rotate(0,126,114)"/><rect x="120" y="132" width="12" height="12" transform="rotate(0,126,138)"/><rect x="120" y="144" width="12" height="12" transform="rotate(0,126,150)"/><rect x="120" y="156" width="12" height="12" transform="rotate(0,126,162)"/><rect x="120" y="180" width="12" height="12" transform="rotate(0,126,186)"/><rect x="120" y="228" width="12" height="12" transform="rotate(0,126,234)"/><rect x="120" y="240" width="12" height="12" transform="rotate(0,126,246)"/><rect x="120" y="252" width="12" height="12" transform="rotate(0,126,258)"/><rect x="120" y="288" width="12" height="12" transform="rotate(0,126,294)"/><rect x="132" y="0" width="12" height="12" transform="rotate(0,138,6)"/><rect x="132" y="24" width="12" height="12" transform="rotate(0,138,30)"/><rect x="132" y="84" width="12" height="12" transform="rotate(0,138,90)"/><rect x="132" y="96" width="12" height="12" transform="rotate(0,138,102)"/><rect x="132" y="132" width="12" height="12" transform="rotate(0,138,138)"/><rect x="132" y="144" width="12" height="12" transform="rotate(0,138,150)"/><rect x="132" y="168" width="12" height="12" transform="rotate(0,138,174)"/><rect x="132" y="180" width="12" height="12" transform="rotate(0,138,186)"/><rect x="132" y="192" width="12" height="12" transform="rotate(0,138,198)"/><rect x="132" y="204" width="12" height="12" transform="rotate(0,138,210)"/><rect x="132" y="252" width="12" height="12" transform="rotate(0,138,258)"/><rect x="132" y="264" width="12" height="12" transform="rotate(0,138,270)"/><rect x="132" y="276" width="12" height="12" transform="rotate(0,138,282)"/><rect x="132" y="288" width="12" height="12" transform="rotate(0,138,294)"/><rect x="144" y="0" width="12" height="12" transform="rotate(0,150,6)"/><rect x="144" y="36" width="12" height="12" transform="rotate(0,150,42)"/><rect x="144" y="60" width="12" height="12" transform="rotate(0,150,66)"/><rect x="144" y="72" width="12" height="12" transform="rotate(0,150,78)"/><rect x="144" y="84" width="12" height="12" transform="rotate(0,150,90)"/><rect x="144" y="108" width="12" height="12" transform="rotate(0,150,114)"/><rect x="144" y="120" width="12" height="12" transform="rotate(0,150,126)"/><rect x="144" y="132" width="12" height="12" transform="rotate(0,150,138)"/><rect x="144" y="180" width="12" height="12" transform="rotate(0,150,186)"/><rect x="144" y="216" width="12" height="12" transform="rotate(0,150,222)"/><rect x="144" y="288" width="12" height="12" transform="rotate(0,150,294)"/><rect x="156" y="0" width="12" height="12" transform="rotate(0,162,6)"/><rect x="156" y="12" width="12" height="12" transform="rotate(0,162,18)"/><rect x="156" y="24" width="12" height="12" transform="rotate(0,162,30)"/><rect x="156" y="48" width="12" height="12" transform="rotate(0,162,54)"/><rect x="156" y="84" width="12" height="12" transform="rotate(0,162,90)"/><rect x="156" y="120" width="12" height="12" transform="rotate(0,162,126)"/><rect x="156" y="132" width="12" height="12" transform="rotate(0,162,138)"/><rect x="156" y="156" width="12" height="12" transform="rotate(0,162,162)"/><rect x="156" y="168" width="12" height="12" transform="rotate(0,162,174)"/><rect x="156" y="180" width="12" height="12" transform="rotate(0,162,186)"/><rect x="156" y="192" width="12" height="12" transform="rotate(0,162,198)"/><rect x="156" y="240" width="12" height="12" transform="rotate(0,162,246)"/><rect x="156" y="276" width="12" height="12" transform="rotate(0,162,282)"/><rect x="168" y="0" width="12" height="12" transform="rotate(0,174,6)"/><rect x="168" y="12" width="12" height="12" transform="rotate(0,174,18)"/><rect x="168" y="24" width="12" height="12" transform="rotate(0,174,30)"/><rect x="168" y="48" width="12" height="12" transform="rotate(0,174,54)"/><rect x="168" y="72" width="12" height="12" transform="rotate(0,174,78)"/><rect x="168" y="96" width="12" height="12" transform="rotate(0,174,102)"/><rect x="168" y="120" width="12" height="12" transform="rotate(0,174,126)"/><rect x="168" y="144" width="12" height="12" transform="rotate(0,174,150)"/><rect x="168" y="180" width="12" height="12" transform="rotate(0,174,186)"/><rect x="168" y="204" width="12" height="12" transform="rotate(0,174,210)"/><rect x="168" y="240" width="12" height="12" transform="rotate(0,174,246)"/><rect x="168" y="252" width="12" height="12" transform="rotate(0,174,258)"/><rect x="168" y="264" width="12" height="12" transform="rotate(0,174,270)"/><rect x="168" y="276" width="12" height="12" transform="rotate(0,174,282)"/><rect x="168" y="288" width="12" height="12" transform="rotate(0,174,294)"/><rect x="180" y="0" width="12" height="12" transform="rotate(0,186,6)"/><rect x="180" y="24" width="12" height="12" transform="rotate(0,186,30)"/><rect x="180" y="60" width="12" height="12" transform="rotate(0,186,66)"/><rect x="180" y="108" width="12" height="12" transform="rotate(0,186,114)"/><rect x="180" y="144" width="12" height="12" transform="rotate(0,186,150)"/><rect x="180" y="168" width="12" height="12" transform="rotate(0,186,174)"/><rect x="180" y="192" width="12" height="12" transform="rotate(0,186,198)"/><rect x="180" y="204" width="12" height="12" transform="rotate(0,186,210)"/><rect x="180" y="216" width="12" height="12" transform="rotate(0,186,222)"/><rect x="180" y="228" width="12" height="12" transform="rotate(0,186,234)"/><rect x="180" y="252" width="12" height="12" transform="rotate(0,186,258)"/><rect x="180" y="264" width="12" height="12" transform="rotate(0,186,270)"/><rect x="180" y="288" width="12" height="12" transform="rotate(0,186,294)"/><rect x="192" y="0" width="12" height="12" transform="rotate(0,198,6)"/><rect x="192" y="36" width="12" height="12" transform="rotate(0,198,42)"/><rect x="192" y="72" width="12" height="12" transform="rotate(0,198,78)"/><rect x="192" y="84" width="12" height="12" transform="rotate(0,198,90)"/><rect x="192" y="96" width="12" height="12" transform="rotate(0,198,102)"/><rect x="192" y="120" width="12" height="12" transform="rotate(0,198,126)"/><rect x="192" y="144" width="12" height="12" transform="rotate(0,198,150)"/><rect x="192" y="156" width="12" height="12" transform="rotate(0,198,162)"/><rect x="192" y="180" width="12" height="12" transform="rotate(0,198,186)"/><rect x="192" y="192" width="12" height="12" transform="rotate(0,198,198)"/><rect x="192" y="204" width="12" height="12" transform="rotate(0,198,210)"/><rect x="192" y="216" width="12" height="12" transform="rotate(0,198,222)"/><rect x="192" y="228" width="12" height="12" transform="rotate(0,198,234)"/><rect x="192" y="240" width="12" height="12" transform="rotate(0,198,246)"/><rect x="192" y="264" width="12" height="12" transform="rotate(0,198,270)"/><rect x="192" y="276" width="12" height="12" transform="rotate(0,198,282)"/><rect x="204" y="96" width="12" height="12" transform="rotate(0,210,102)"/><rect x="204" y="168" width="12" height="12" transform="rotate(0,210,174)"/><rect x="204" y="180" width="12" height="12" transform="rotate(0,210,186)"/><rect x="204" y="192" width="12" height="12" transform="rotate(0,210,198)"/><rect x="204" y="240" width="12" height="12" transform="rotate(0,210,246)"/><rect x="204" y="264" width="12" height="12" transform="rotate(0,210,270)"/><rect x="204" y="276" width="12" height="12" transform="rotate(0,210,282)"/><rect x="216" y="108" width="12" height="12" transform="rotate(0,222,114)"/><rect x="216" y="132" width="12" height="12" transform="rotate(0,222,138)"/><rect x="216" y="144" width="12" height="12" transform="rotate(0,222,150)"/><rect x="216" y="156" width="12" height="12" transform="rotate(0,222,162)"/><rect x="216" y="192" width="12" height="12" transform="rotate(0,222,198)"/><rect x="216" y="216" width="12" height="12" transform="rotate(0,222,222)"/><rect x="216" y="240" width="12" height="12" transform="rotate(0,222,246)"/><rect x="216" y="288" width="12" height="12" transform="rotate(0,222,294)"/><rect x="228" y="120" width="12" height="12" transform="rotate(0,234,126)"/><rect x="228" y="144" width="12" height="12" transform="rotate(0,234,150)"/><rect x="228" y="156" width="12" height="12" transform="rotate(0,234,162)"/><rect x="228" y="168" width="12" height="12" transform="rotate(0,234,174)"/><rect x="228" y="180" width="12" height="12" transform="rotate(0,234,186)"/><rect x="228" y="192" width="12" height="12" transform="rotate(0,234,198)"/><rect x="228" y="240" width="12" height="12" transform="rotate(0,234,246)"/><rect x="228" y="288" width="12" height="12" transform="rotate(0,234,294)"/><rect x="240" y="96" width="12" height="12" transform="rotate(0,246,102)"/><rect x="240" y="180" width="12" height="12" transform="rotate(0,246,186)"/><rect x="240" y="192" width="12" height="12" transform="rotate(0,246,198)"/><rect x="240" y="204" width="12" height="12" transform="rotate(0,246,210)"/><rect x="240" y="216" width="12" height="12" transform="rotate(0,246,222)"/><rect x="240" y="228" width="12" height="12" transform="rotate(0,246,234)"/><rect x="240" y="240" width="12" height="12" transform="rotate(0,246,246)"/><rect x="240" y="276" width="12" height="12" transform="rotate(0,246,282)"/><rect x="252" y="96" width="12" height="12" transform="rotate(0,258,102)"/><rect x="252" y="108" width="12" height="12" transform="rotate(0,258,114)"/><rect x="252" y="120" width="12" height="12" transform="rotate(0,258,126)"/><rect x="252" y="132" width="12" height="12" transform="rotate(0,258,138)"/><rect x="252" y="144" width="12" height="12" transform="rotate(0,258,150)"/><rect x="252" y="180" width="12" height="12" transform="rotate(0,258,186)"/><rect x="252" y="192" width="12" height="12" transform="rotate(0,258,198)"/><rect x="252" y="204" width="12" height="12" transform="rotate(0,258,210)"/><rect x="252" y="216" width="12" height="12" transform="rotate(0,258,222)"/><rect x="252" y="276" width="12" height="12" transform="rotate(0,258,282)"/><rect x="252" y="288" width="12" height="12" transform="rotate(0,258,294)"/><rect x="264" y="120" width="12" height="12" transform="rotate(0,270,126)"/><rect x="264" y="132" width="12" height="12" transform="rotate(0,270,138)"/><rect x="264" y="144" width="12" height="12" transform="rotate(0,270,150)"/><rect x="264" y="192" width="12" height="12" transform="rotate(0,270,198)"/><rect x="264" y="204" width="12" height="12" transform="rotate(0,270,210)"/><rect x="264" y="240" width="12" height="12" transform="rotate(0,270,246)"/><rect x="264" y="252" width="12" height="12" transform="rotate(0,270,258)"/><rect x="264" y="264" width="12" height="12" transform="rotate(0,270,270)"/><rect x="264" y="276" width="12" height="12" transform="rotate(0,270,282)"/><rect x="264" y="288" width="12" height="12" transform="rotate(0,270,294)"/><rect x="276" y="96" width="12" height="12" transform="rotate(0,282,102)"/><rect x="276" y="120" width="12" height="12" transform="rotate(0,282,126)"/><rect x="276" y="132" width="12" height="12" transform="rotate(0,282,138)"/><rect x="276" y="168" width="12" height="12" transform="rotate(0,282,174)"/><rect x="276" y="216" width="12" height="12" transform="rotate(0,282,222)"/><rect x="276" y="228" width="12" height="12" transform="rotate(0,282,234)"/><rect x="276" y="240" width="12" height="12" transform="rotate(0,282,246)"/><rect x="276" y="264" width="12" height="12" transform="rotate(0,282,270)"/><rect x="276" y="276" width="12" height="12" transform="rotate(0,282,282)"/><rect x="276" y="288" width="12" height="12" transform="rotate(0,282,294)"/><rect x="288" y="96" width="12" height="12" transform="rotate(0,294,102)"/><rect x="288" y="120" width="12" height="12" transform="rotate(0,294,126)"/><rect x="288" y="132" width="12" height="12" transform="rotate(0,294,138)"/><rect x="288" y="168" width="12" height="12" transform="rotate(0,294,174)"/><rect x="288" y="180" width="12" height="12" transform="rotate(0,294,186)"/><rect x="288" y="192" width="12" height="12" transform="rotate(0,294,198)"/><rect x="288" y="216" width="12" height="12" transform="rotate(0,294,222)"/><rect x="288" y="252" width="12" height="12" transform="rotate(0,294,258)"/><rect x="288" y="288" width="12" height="12" transform="rotate(0,294,294)"/></clipPath><linearGradient id="dot-color" gradientUnits="userSpaceOnUse" x1="0" y1="150" x2="300" y2="150"><stop offset="0%" stop-color="#7B1F59"/><stop offset="100%" stop-color="#c46e7f"/></linearGradient><clipPath id="clip-path-corners-square-color-0-0"><path clip-rule="evenodd" d="M 0 0v 84h 84v -84zM 12 12h 60v 60h -60z" transform="rotate(0,42,42)"/></clipPath><linearGradient id="corners-square-color-0-0" gradientUnits="userSpaceOnUse" x1="0" y1="42" x2="84" y2="42"><stop offset="0%" stop-color="#7B1F59"/><stop offset="100%" stop-color="#c46e7f"/></linearGradient><clipPath id="clip-path-corners-square-color-1-0"><path clip-rule="evenodd" d="M 216 0v 84h 84v -84zM 228 12h 60v 60h -60z" transform="rotate(90,258,42)"/></clipPath><linearGradient id="corners-square-color-1-0" gradientUnits="userSpaceOnUse" x1="258" y1="0" x2="258" y2="84"><stop offset="0%" stop-color="#7B1F59"/><stop offset="100%" stop-color="#c46e7f"/></linearGradient><clipPath id="clip-path-corners-square-color-0-1"><path clip-rule="evenodd" d="M 0 216v 84h 84v -84zM 12 228h 60v 60h -60z" transform="rotate(-90,42,258)"/></clipPath><linearGradient id="corners-square-color-0-1" gradientUnits="userSpaceOnUse" x1="42" y1="300" x2="42" y2="216"><stop offset="0%" stop-color="#7B1F59"/><stop offset="100%" stop-color="#c46e7f"/></linearGradient></defs><rect x="0" y="0" height="300" width="300" clip-path="url('#clip-path-dot-color')" fill="url('#dot-color')"/><g class="green-dots"/><rect x="0" y="0" height="84" width="84" clip-path="url('#clip-path-corners-square-color-0-0')" fill="url('#corners-square-color-0-0')"/><g class="corners-dot-color-0-0"><rect x="24" y="24" width="36" height="36" transform="rotate(0,42,42)"/></g><rect x="216" y="0" height="84" width="84" clip-path="url('#clip-path-corners-square-color-1-0')" fill="url('#corners-square-color-1-0')"/><g class="corners-dot-color-1-0"><rect x="240" y="24" width="36" height="36" transform="rotate(90,258,42)"/></g><rect x="0" y="216" height="84" width="84" clip-path="url('#clip-path-corners-square-color-0-1')" fill="url('#corners-square-color-0-1')"/><g class="corners-dot-color-0-1"><rect x="24" y="240" width="36" height="36" transform="rotate(-90,42,258)"/></g></svg></g></svg></svg>